<svg xmlns="http://www.w3.org/2000/svg" width="24" height="24" viewBox="0 0 24 24" fill="none">
  <path d="M3 9C3 5.68629 7.02944 3 12 3C16.9706 3 21 5.68629 21 9V14C21 16.2091 19.2091 18 17 18H15C15 19.1046 14.1046 20 13 20H11C9.89543 20 9 19.1046 9 18C9 16.8954 9.89543 16 11 16H13C14.1046 16 15 16.8954 15 18" stroke="#22a855" stroke-width="1.8" stroke-linecap="round"/>
  <path d="M6 10C6 8 8.68629 7 12 7C15.3137 7 18 8 18 10V13C18 14.1046 17.1046 15 16 15H8C6.89543 15 6 14.1046 6 13V10Z" fill="#d4f5e0"/>
</svg>
